<svg viewBox="0 0 256 256" xmlns="http://www.w3.org/2000/svg"><defs><linearGradient x1="50%" y1="0%" x2="50%" y2="100%" id="a"><stop stop-color="#17C9FB" offset="0%"/><stop stop-color="#1A74E8" offset="100%"/></linearGradient></defs><path d="M56.06 0h143.88A56.06 56.06 0 0 1 256 56.06v143.88A56.06 56.06 0 0 1 199.94 256H56.06A56.06 56.06 0 0 1 0 199.94V56.06A56.06 56.06 0 0 1 56.06 0Z" fill="url(#a)"/><path d="M82.04 185.81h.03l-8.76 15.17a11.57 11.57 0 0 1-20.04-11.57l6.45-11.17.62-1.07c1.1-1.59 3.83-4.33 9.29-3.82 0 0 12.83 1.4 13.76 8.07 0 0 .13 2.2-1.35 4.39Zm124.15-38.72h-27.3c-1.86-.13-2.67-.79-2.99-1.17l-.02-.04-29.22-50.6-.03.02-1.76-2.51c-2.87-4.4-7.43 6.84-7.43 6.84-5.44 12.51.77 26.74 2.94 31.04l40.58 70.3A11.57 11.57 0 1 0 201 189.38l-10.14-17.57c-.2-.43-.54-1.59 1.54-1.6h13.79a11.57 11.57 0 0 0 0-23.13Zm-53.02 15.73s1.46 7.4-4.18 7.4H48.1a11.57 11.57 0 0 1 0-23.13h25.94c4.19-.24 5.18-2.66 5.18-2.66l.03.01L113.1 85.8h-.01c.61-1.13.1-2.2.01-2.37l-11.18-19.37a11.57 11.57 0 1 1 20.04-11.57l5.18 8.98 5.18-8.96a11.57 11.57 0 1 1 20.04 11.57l-47.12 81.6c-.2.5-.27 1.28 1.27 1.42h28.16v.27s16.28.26 18.5 15.46Z" fill="#FFF"/></svg>