<svg xmlns="http://www.w3.org/2000/svg" viewBox="-200 -300 1400 980"><path fill="#87ccff" d="M486 118a193 193 0 1 0 0 386 193 193 0 0 0 0-386zm22 16c17 2 33 7 49 14 6 13-24 14-32 20 2 9 13 25-6 26-18-5-39 26-14 31 8 15-21 21-27 35-6 15-10 33-4 48 7 21 32 27 51 20 21-3 21 21 26 35 6 17-1 32 6 50 8 20 25 22 36 6s25-32 28-51c3-13 6-25 13-37 8 2 24-6 26 4-8 72-67 134-138 149-25 4-51 4-76 0-19-5-38-10-53-23-7-15 2-33 8-47 21-7 5-27 15-41 9-22-23-19-33-31-4-17-22-16-32-27-5-4-8-13-16-10-18 5-27-21-22-35 0-21 24 3 25-14 2-8-2-18 2-24 7-12 21-15 32-18 1-16 13-6 21-6 15-11-12-32 8-42-11-14 22-24 25-9-3 16 11 18 20 8 9-8 22-8 33-8 6-9 17-17 27-22zm30 79 14 2c13 11 27 18 45 18 24-1 4 23-9 14-22 5-33-18-52-19-17 2-9-15 1-15zm-227 95c5 4 10 9 10 16-3 14 0 28 4 41 3 7 13 9 17 16 6 7 9 32 1 33-11-14-19-30-25-47-6-19-11-39-7-58z"/><path fill="#fff" stroke="#5273c9" stroke-width="8" d="M649 117a21 21 0 0 0-21 21v110a42 42 0 0 0-21 37 42 42 0 0 0 42 42 42 42 0 0 0 42-42 42 42 0 0 0-21-37V138a21 21 0 0 0-21-21z"/><circle cx="649" cy="285" r="29" fill="#57c18b"/><path fill="none" stroke="#57c18b" stroke-width="19" d="M649 285v-74"/><path fill="none" stroke="#5273c9" stroke-width="5" d="M640 209h164"/><text xml:space="preserve" x="684" y="188" fill="#57c18b" font-family="Helvetica" font-size="72">2°C</text><path stroke="#74bf8f" stroke-dasharray="4 12" stroke-width="4" d="M479 543v138m356-545L1011 2M11 2l243 190"/></svg>