<svg xmlns="http://www.w3.org/2000/svg" viewBox="0 0 800 130" style="background:#355086"><path fill="#57c18b" d="M72 102c-9-3-10-24 3-42s28-29 39-55c2-4 3-1 4 1 15 40 16 111-34 101-13 12-24 20-32 23l-3-6c21-8 55-44 63-87v1c-9 33-34 59-40 64z"/><path fill="#fff" d="M326 38a39 39 0 0 1 55 0h1l-8 8a28 28 0 0 0-40 0 28 28 0 0 0 0 40 28 28 0 0 0 40 0l8 7a39 39 0 0 1-56 0 39 39 0 0 1 0-55zm267-11c22 0 39 17 39 39s-17 39-39 39a39 39 0 0 1 0-78zm-39-12h1l-8 8a42 42 0 0 0-59 0 42 42 0 0 0 0 59 42 42 0 0 0 58 0h1l8 7a53 53 0 0 1-75 0 52 52 0 0 1 0-74 53 53 0 0 1 74 0zm39 23a28 28 0 0 0-28 28 28 28 0 0 0 28 28 28 28 0 1 0 0-56zM421 27a39 39 0 0 0 0 78c22 0 40-18 40-39s-18-39-40-39zm0 11a28 28 0 0 1 29 28 28 28 0 0 1-29 28c-15 0-28-13-28-28s13-28 28-28zM715 1v103h-11V93a39 39 0 0 1-28 12 39 39 0 0 1 0-78 39 39 0 0 1 28 12V1h11zm-39 37a28 28 0 0 0-28 28 28 28 0 0 0 28 28 28 28 0 1 0 0-56zm85-11c21 0 38 17 39 38v6h-67a28 28 0 0 0 27 23h1c10 0 19-4 25-12v-1l9 7c-9 11-21 17-34 17-22 0-40-18-40-39s18-39 40-39zm0 11a28 28 0 0 0-28 22h55a28 28 0 0 0-27-22zM271 27c21 0 39 17 39 38v6h-67a28 28 0 0 0 27 23h1c10 0 19-4 25-12v-1l9 7c-8 11-20 17-34 17a39 39 0 0 1 0-78zm0 11a28 28 0 0 0-28 22h56a28 28 0 0 0-28-22zM42 22l7 7-35 35 35 35-7 7L0 64l42-42zm108 0-7 7 35 35-35 35 7 7 42-42-42-42z"/></svg>