<svg xmlns="http://www.w3.org/2000/svg" viewBox="0 0 720 540" style="background:#355086"><path fill="#57c18b" d="M337 219c-9-3-10-24 3-42s28-30 39-55c2-4 3-1 4 0 15 40 16 112-34 101-13 13-24 21-32 24l-3-7c21-8 55-44 64-86h-1c-9 34-34 59-40 65z"/><path fill="#fff" d="M170 334a39 39 0 0 1 55 0l-7 8a28 28 0 0 0-40 0 28 28 0 0 0 0 40 28 28 0 0 0 39 0h1l7 7a39 39 0 0 1-55 0 39 39 0 0 1 0-55zm267-11a39 39 0 0 1 0 78c-21 0-39-18-39-39s17-39 39-39zm-39-12-7 8a42 42 0 0 0-59 0 42 42 0 0 0 0 59 42 42 0 0 0 58 0h1l7 7a53 53 0 0 1-74 0 52 52 0 0 1 0-74 53 53 0 0 1 74 0zm39 23a28 28 0 0 0-29 28 28 28 0 0 0 29 28c15 0 28-13 28-28s-13-28-28-28zm-172-11a39 39 0 1 0 0 78 39 39 0 0 0 0-78zm0 11a28 28 0 0 1 29 28 28 28 0 0 1-29 28c-15 0-28-13-28-28s13-28 28-28zm294-37v103h-11v-11a39 39 0 0 1-28 12 39 39 0 0 1 0-78 39 39 0 0 1 28 12v-38h11zm-39 37a28 28 0 0 0-28 28 28 28 0 0 0 28 28 28 28 0 1 0 0-56zm84-11c22 0 39 17 40 38v6h-67a28 28 0 0 0 27 23c11 0 19-4 26-12v-1l9 7c-9 11-21 17-35 17-21 0-39-18-39-39s18-39 39-39zm0 11a28 28 0 0 0-27 22h-1 56a28 28 0 0 0-27-22h-1zm-489-11c21 0 38 17 39 38v6H87a28 28 0 0 0 27 23h1c10 0 19-4 25-12v-1l9 7c-9 11-21 17-34 17-22 0-40-18-40-39s18-39 40-39zm0 11a28 28 0 0 0-28 22h55a28 28 0 0 0-27-22zm192-195 7 7-35 35 35 35-7 7-42-42 42-42zm108 0-7 7 35 35-35 35 7 7 42-42-42-42z"/></svg>