<svg xmlns="http://www.w3.org/2000/svg" viewBox="0 0 248.1 58.2"><path d="M0 57.3h9.7V32c0-5 3.3-8.7 8-8.7 4.5 0 7.3 2.9 7.3 7.5v26.5h9.5V31.7c0-5 3.2-8.4 7.9-8.4s7.4 3 7.4 8v26h9.7V28.9c0-8.3-5.3-13.8-13.5-13.8-6 0-10.9 3.2-12.9 8.3H33c-1.5-5.3-5.7-8.3-11.6-8.3-5.6 0-10 3.2-11.8 8h-.2v-7.2H0v41.4zm80.8-6.7c-4.2 0-7-2.1-7-5.5 0-3.3 2.7-5.4 7.4-5.7l9.5-.6V42c0 5-4.4 8.6-9.9 8.6zm-3 7.4c5.4 0 10.6-2.8 13-7.3h.2v6.6h9.4V28.8c0-8.3-6.7-13.8-17-13.8-10.5 0-17.1 5.6-17.6 13.3h9c.7-3.4 3.6-5.6 8.2-5.6 4.8 0 7.7 2.5 7.7 6.8v3l-10.9.6c-10 .6-15.7 5-15.7 12.4S69.9 58 77.9 58zm65.3-27.3c-.7-8.7-7.5-15.7-18.4-15.7-12 0-19.9 8.4-19.9 21.6 0 13.4 7.9 21.5 20 21.5 10.4 0 17.5-6 18.3-15.3h-9.2c-.9 4.7-4 7.5-9 7.5-6.2 0-10.2-5-10.2-13.7 0-8.5 4-13.7 10.1-13.7 5.2 0 8.3 3.3 9 7.8h9.3zM173 0c-16.5 0-26.8 11.2-26.8 29.1 0 18 10.3 29.1 26.8 29.1 16.4 0 26.7-11.1 26.7-29 0-18-10.3-29.2-26.7-29.2zm0 8.6c10 0 16.4 8 16.4 20.5 0 12.6-6.4 20.5-16.4 20.5-10 0-16.5-8-16.5-20.5S163 8.6 173.1 8.6zm30.8 32.8c.4 10.4 9 16.8 22 16.8 13.6 0 22.2-6.7 22.2-17.4 0-8.4-4.9-13.1-16.3-15.7l-6.5-1.5c-7-1.6-9.8-3.8-9.8-7.6 0-4.7 4.3-7.8 10.7-7.8 6.4 0 10.8 3.2 11.3 8.4h9.6C247 6.7 238.7 0 226.3 0c-12.3 0-21 6.8-21 16.8 0 8 4.9 13 15.3 15.4l7.3 1.7c7.1 1.7 10 4 10 8 0 4.8-4.7 8.1-11.5 8.1-6.9 0-12.1-3.4-12.7-8.6h-9.8z"/></svg>