<svg xmlns="http://www.w3.org/2000/svg" viewBox="0 0 2000 423"><path fill="#0078d4" d="M828 337h-52l-51-193-51 193h-53L551 86h47l51 200 55-200h47l52 201 48-201h46zm136-233c0 7-3 12-8 17-5 4-11 7-18 7s-13-3-18-7c-5-5-7-10-7-17s2-13 7-17c5-5 11-7 18-7s13 2 18 7 8 10 8 17zm-48 233V156h43v181zm205 0V236c0-26-8-49-34-49-27 0-44 24-44 48v102h-41V156h41v25h1c14-21 33-28 59-28 20 0 35 5 45 17 11 12 16 31 16 57v110zm208 0v-23h-1c-13 22-40 27-58 27-56 0-76-43-76-89 0-30 7-55 23-73 15-18 35-26 61-26 40 0 50 22 50 22h1V70h43v267zm0-103c0-22-14-47-43-47-34 0-48 30-48 64 0 29 13 56 45 57 32 0 46-30 46-55zm259 12c0 62-37 97-94 97-61 0-92-37-92-93 0-65 37-98 97-98 54 0 89 35 89 94zm-44 1c0-28-10-59-47-59s-51 27-51 60c0 36 17 59 50 59 36 0 48-27 48-60zm271 90h-46l-36-131-38 131h-46l-52-181h44l34 141 41-141h41l36 140 34-140h40zm185-50c0 40-37 56-73 56-24 0-48-9-48-9v-43s21 18 50 18c19 0 28-6 28-18 1-10-5-15-12-19l-22-11c-12-5-21-10-27-14a52 52 0 0 1-18-39c0-33 28-56 71-56 29 0 41 7 41 7v41s-20-14-41-14c-16 0-27 5-27 18 0 16 19 24 31 28 17 7 30 15 37 23 7 9 10 17 10 32zM0 0h199v199H0zm225 0h200v199H225zM0 225h199v200H0zm225 0h200v200H225z"/></svg>