<svg xmlns="http://www.w3.org/2000/svg" viewBox="0 0 117.6 58.4"><path d="M.5 57.4h9.8V16H.5Zm4.9-46.8A5.3 5.3 0 1 0 5.4 0a5.3 5.3 0 1 0 0 10.6zM42.7 0C26.2.1 15.9 11.3 15.9 29.3c0 17.9 10.3 29 26.8 29 16.4 0 26.7-11.1 26.7-29C69.4 11.3 59 0 42.7 0zm0 8.6c10 0 16.4 8 16.4 20.6 0 12.5-6.4 20.5-16.4 20.5-10.1 0-16.5-8-16.5-20.5 0-12.6 6.4-20.6 16.5-20.6zm30.8 32.9c.4 10.4 9 16.8 21.9 16.8 13.6 0 22.2-6.8 22.2-17.5 0-8.4-4.8-13-16.3-15.7l-6.5-1.5c-6.9-1.6-9.7-3.8-9.7-7.6 0-4.7 4.3-7.8 10.6-7.8 6.5 0 10.9 3.2 11.4 8.5h9.6C116.4 6.8 108.2 0 95.8 0c-12.2.1-21 7-21 17 0 8 5 13 15.4 15.4l7.3 1.7c7 1.7 10 4 10 8.1 0 4.7-4.8 8-11.6 8s-12-3.3-12.7-8.5h-9.7z"/></svg>