<svg xmlns="http://www.w3.org/2000/svg" viewBox="0 0 980 149"><path d="M466 48c-25 0-51 18-51 51 0 29 23 50 51 50 34 0 51-27 51-50 0-28-22-51-51-51zm0 20c17 0 29 14 29 31s-13 30-29 30c-15 0-29-12-29-30 0-19 13-31 29-31zm93-53a14 14 0 0 1-14 14 14 14 0 0 1-15-14 14 14 0 0 1 15-15 14 14 0 0 1 14 15zm61 33c-23 0-47 18-47 51 0 29 21 50 47 50 21 0 31-14 31-14v6c0 3 3 7 6 7h16V1h-22v61s-10-14-31-14zm4 20c19 0 29 17 29 31 0 16-12 31-29 31-15 0-29-12-29-31 0-18 12-31 29-31zm-84 80c-3 0-6-3-6-7V50h22v98zm-181 0c-4 0-7-3-7-7V50h22v16c4-9 12-17 26-17l8 1v22l-10-2c-15 0-24 15-24 28v50zM276 48c-24 0-47 18-47 51 0 29 21 50 47 50 21 0 31-14 31-14v6c0 3 2 7 6 7h15V1h-21v61s-10-14-31-14zm3 20c19 0 29 17 29 31 0 16-11 31-29 31-14 0-28-12-28-31 0-18 12-31 28-31zm-149 80c-3 0-6-3-6-7V50h22v12c4-7 14-14 29-14 24 0 37 19 37 37v63h-15c-4 0-7-4-7-7V90c0-10-6-22-20-22-15 0-24 14-24 28v52zM47 48C24 48 0 66 0 99c0 29 21 50 47 50 21 0 31-14 31-14v6c0 3 3 7 6 7h16V50H78v12S68 48 47 48zm4 20c19 0 29 17 29 31 0 16-12 31-29 31-14 0-29-12-29-31 0-18 13-31 29-31z"/><path fill="#32de84" d="m913 44 22-37c1-3 0-5-2-6-2-2-5-1-6 1l-22 38a134 134 0 0 0-112 0L771 2c-1-2-4-3-6-1-2 1-3 3-1 6l21 37c-37 20-62 58-67 103h262c-4-45-30-83-67-103zm-124 66a11 11 0 1 1 0-22 11 11 0 0 1 0 22zm120 0a11 11 0 1 1 0-22 11 11 0 0 1 0 22z"/></svg>